<mxfile host="app.diagrams.net" agent="Mozilla/5.0 (Windows NT 10.0; Win64; x64) AppleWebKit/537.36 (KHTML, like Gecko) Chrome/131.0.0.0 Safari/537.36" version="26.0.1">
  <diagram name="Side-1" id="G5QGJ-1rBLK25jhtir3_">
    <mxGraphModel dx="450" dy="702" grid="1" gridSize="10" guides="1" tooltips="1" connect="1" arrows="1" fold="1" page="1" pageScale="1" pageWidth="827" pageHeight="1169" math="0" shadow="0">
      <root>
        <mxCell id="0" />
        <mxCell id="1" parent="0" />
        <mxCell id="7I9gYKgFGkx-DXvByydu-1" value="Månedlig inkomst" style="text;html=1;align=left;verticalAlign=middle;whiteSpace=wrap;rounded=0;" vertex="1" parent="1">
          <mxGeometry x="40" y="20" width="60" height="20" as="geometry" />
        </mxCell>
        <mxCell id="7I9gYKgFGkx-DXvByydu-2" value="Månedlige udgifter" style="text;html=1;align=left;verticalAlign=middle;whiteSpace=wrap;rounded=0;" vertex="1" parent="1">
          <mxGeometry x="40" y="60" width="60" height="20" as="geometry" />
        </mxCell>
        <mxCell id="7I9gYKgFGkx-DXvByydu-3" value="" style="rounded=0;whiteSpace=wrap;html=1;" vertex="1" parent="1">
          <mxGeometry x="140" y="60" width="100" height="20" as="geometry" />
        </mxCell>
        <mxCell id="7I9gYKgFGkx-DXvByydu-4" value="kr." style="text;html=1;align=left;verticalAlign=middle;whiteSpace=wrap;rounded=0;" vertex="1" parent="1">
          <mxGeometry x="250" y="55" width="60" height="30" as="geometry" />
        </mxCell>
        <mxCell id="7I9gYKgFGkx-DXvByydu-5" value="" style="rounded=0;whiteSpace=wrap;html=1;" vertex="1" parent="1">
          <mxGeometry x="140" y="20" width="100" height="20" as="geometry" />
        </mxCell>
        <mxCell id="7I9gYKgFGkx-DXvByydu-6" value="Svar/Fejl" style="rounded=0;whiteSpace=wrap;html=1;align=left;verticalAlign=middle;fillColor=#f5f5f5;fontColor=#333333;strokeColor=#666666;" vertex="1" parent="1">
          <mxGeometry x="140" y="100" width="100" height="20" as="geometry" />
        </mxCell>
        <mxCell id="7I9gYKgFGkx-DXvByydu-7" value="kr." style="text;html=1;align=left;verticalAlign=middle;whiteSpace=wrap;rounded=0;" vertex="1" parent="1">
          <mxGeometry x="250" y="15" width="60" height="30" as="geometry" />
        </mxCell>
      </root>
    </mxGraphModel>
  </diagram>
</mxfile>
